# Blender 3.6.22
# www.blender.org
mtllib Emblem.mtl
o Cylinder
v 0.200000 0.000000 -1.000000
v -0.200000 0.000000 -1.000000
v 0.200000 0.195090 -0.980785
v -0.200000 0.195090 -0.980785
v 0.200000 0.382684 -0.923879
v -0.200000 0.382683 -0.923879
v 0.200000 0.555570 -0.831470
v -0.200000 0.555570 -0.831470
v 0.200000 0.707107 -0.707107
v -0.200000 0.707107 -0.707107
v 0.200000 0.831470 -0.555570
v -0.200000 0.831470 -0.555570
v 0.200000 0.923880 -0.382683
v -0.200000 0.923879 -0.382683
v 0.200000 0.980785 -0.195090
v -0.200000 0.980785 -0.195090
v 0.200000 1.000000 0.000000
v -0.200000 1.000000 0.000000
v 0.200000 0.980785 0.195090
v -0.200000 0.980785 0.195090
v 0.200000 0.923880 0.382683
v -0.200000 0.923879 0.382683
v 0.200000 0.831470 0.555570
v -0.200000 0.831470 0.555570
v 0.200000 0.707107 0.707107
v -0.200000 0.707107 0.707107
v 0.200000 0.555570 0.831470
v -0.200000 0.555570 0.831470
v 0.200000 0.382684 0.923879
v -0.200000 0.382683 0.923879
v 0.200000 0.195090 0.980785
v -0.200000 0.195090 0.980785
v 0.200000 0.000000 1.000000
v -0.200000 0.000000 1.000000
v 0.200000 -0.195090 0.980785
v -0.200000 -0.195090 0.980785
v 0.200000 -0.382683 0.923879
v -0.200000 -0.382684 0.923879
v 0.200000 -0.555570 0.831470
v -0.200000 -0.555570 0.831470
v 0.200000 -0.707107 0.707107
v -0.200000 -0.707107 0.707107
v 0.200000 -0.831470 0.555570
v -0.200000 -0.831470 0.555570
v 0.200000 -0.923879 0.382683
v -0.200000 -0.923880 0.382683
v 0.200000 -0.980785 0.195090
v -0.200000 -0.980785 0.195090
v 0.200000 -1.000000 0.000000
v -0.200000 -1.000000 0.000000
v 0.200000 -0.980785 -0.195090
v -0.200000 -0.980785 -0.195090
v 0.200000 -0.923879 -0.382683
v -0.200000 -0.923880 -0.382683
v 0.200000 -0.831470 -0.555570
v -0.200000 -0.831470 -0.555570
v 0.200000 -0.707107 -0.707107
v -0.200000 -0.707107 -0.707107
v 0.200000 -0.555570 -0.831470
v -0.200000 -0.555570 -0.831470
v 0.200000 -0.382683 -0.923879
v -0.200000 -0.382684 -0.923879
v 0.200000 -0.195090 -0.980785
v -0.200000 -0.195090 -0.980785
vn 0.6857 -0.0000 -0.7279
vn -0.6857 -0.0000 -0.7279
vn -0.6857 0.1420 -0.7139
vn 0.6857 0.1420 -0.7139
vn -0.6857 0.2786 -0.6725
vn 0.6857 0.2786 -0.6725
vn -0.6857 0.4044 -0.6052
vn 0.6857 0.4044 -0.6052
vn -0.6857 0.5147 -0.5147
vn 0.6857 0.5147 -0.5147
vn -0.6857 0.6052 -0.4044
vn 0.6857 0.6052 -0.4044
vn -0.6857 0.6725 -0.2786
vn 0.6857 0.6725 -0.2786
vn -0.6857 0.7139 -0.1420
vn 0.6857 0.7139 -0.1420
vn -0.6857 0.7279 -0.0000
vn 0.6857 0.7279 -0.0000
vn -0.6857 0.7139 0.1420
vn 0.6857 0.7139 0.1420
vn -0.6857 0.6725 0.2786
vn 0.6857 0.6725 0.2786
vn -0.6857 0.6052 0.4044
vn 0.6857 0.6052 0.4044
vn -0.6857 0.5147 0.5147
vn 0.6857 0.5147 0.5147
vn -0.6857 0.4044 0.6052
vn 0.6857 0.4044 0.6052
vn -0.6857 0.2786 0.6725
vn 0.6857 0.2786 0.6725
vn -0.6857 0.1420 0.7139
vn 0.6857 0.1420 0.7139
vn -0.6857 -0.0000 0.7279
vn 0.6857 -0.0000 0.7279
vn -0.6857 -0.1420 0.7139
vn 0.6857 -0.1420 0.7139
vn -0.6857 -0.2786 0.6725
vn 0.6857 -0.2786 0.6725
vn -0.6857 -0.4044 0.6052
vn 0.6857 -0.4044 0.6052
vn -0.6857 -0.5147 0.5147
vn 0.6857 -0.5147 0.5147
vn -0.6857 -0.6052 0.4044
vn 0.6857 -0.6052 0.4044
vn -0.6857 -0.6725 0.2786
vn 0.6857 -0.6725 0.2786
vn -0.6857 -0.7139 0.1420
vn 0.6857 -0.7139 0.1420
vn -0.6857 -0.7279 -0.0000
vn 0.6857 -0.7279 -0.0000
vn -0.6857 -0.7139 -0.1420
vn 0.6857 -0.7139 -0.1420
vn -0.6857 -0.6725 -0.2786
vn 0.6857 -0.6725 -0.2786
vn -0.6857 -0.6052 -0.4044
vn 0.6857 -0.6052 -0.4044
vn -0.6857 -0.5147 -0.5147
vn 0.6857 -0.5147 -0.5147
vn -0.6857 -0.4044 -0.6052
vn 0.6857 -0.4044 -0.6052
vn -0.6857 -0.2786 -0.6725
vn 0.6857 -0.2786 -0.6725
vn -0.6857 -0.1420 -0.7139
vn 0.6857 -0.1420 -0.7139
vt 0.989806 0.810442
vt 0.889681 0.810442
vt 0.889681 0.859276
vt 0.989806 0.859276
vt 0.889681 0.906232
vt 0.989806 0.906232
vt 0.889681 0.949508
vt 0.989806 0.949508
vt 0.889681 0.987439
vt 0.989806 0.987439
vt 0.989806 0.987439
vt 0.889681 0.987439
vt 0.989806 0.949508
vt 0.889681 0.761609
vt 0.989806 0.761609
vt 0.889681 0.714652
vt 0.989806 0.714652
vt 0.889681 0.671377
vt 0.989806 0.671377
vt 0.889681 0.633445
vt 0.989806 0.633445
vt 0.889681 0.671377
vt 0.889681 0.633445
vt 0.888247 0.577227
vt 0.895853 0.500000
vt 0.888247 0.422773
vt 0.865721 0.348513
vt 0.829140 0.280076
vt 0.779911 0.220089
vt 0.719924 0.170860
vt 0.651486 0.134279
vt 0.577227 0.111753
vt 0.500000 0.104147
vt 0.422773 0.111753
vt 0.348514 0.134279
vt 0.280076 0.170860
vt 0.220089 0.220089
vt 0.170860 0.280076
vt 0.134279 0.348513
vt 0.111753 0.422773
vt 0.104147 0.500000
vt 0.111753 0.577227
vt 0.134279 0.651486
vt 0.170860 0.719924
vt 0.220089 0.779911
vt 0.280076 0.829140
vt 0.348514 0.865721
vt 0.422773 0.888247
vt 0.500000 0.895853
vt 0.577227 0.888247
vt 0.651486 0.865721
vt 0.719924 0.829140
vt 0.779911 0.779911
vt 0.829140 0.719924
vt 0.865721 0.651486
vt 0.865721 0.651487
vt 0.829140 0.719924
vt 0.719924 0.829140
vt 0.280076 0.829140
vt 0.170860 0.719924
vt 0.134279 0.651487
vt 0.134279 0.348514
vt 0.170860 0.280076
vt 0.220089 0.220089
vt 0.280076 0.170860
vt 0.348514 0.134279
vt 0.422773 0.111753
vt 0.577227 0.111753
vt 0.651486 0.134279
vt 0.719924 0.170860
vt 0.779911 0.220089
vt 0.829140 0.280076
vt 0.865721 0.348514
s 1
usemtl Emblem
f 1/1/1 2/2/2 4/3/3 3/4/4
f 3/4/4 4/3/3 6/5/5 5/6/6
f 5/6/6 6/5/5 8/7/7 7/8/8
f 7/8/8 8/7/7 10/9/9 9/10/10
f 9/11/10 10/12/9 12/7/11 11/13/12
f 11/13/12 12/7/11 14/5/13 13/6/14
f 13/6/14 14/5/13 16/3/15 15/4/16
f 15/4/16 16/3/15 18/2/17 17/1/18
f 17/1/18 18/2/17 20/14/19 19/15/20
f 19/15/20 20/14/19 22/16/21 21/17/22
f 21/17/22 22/16/21 24/18/23 23/19/24
f 23/19/24 24/18/23 26/20/25 25/21/26
f 25/10/26 26/9/25 28/7/27 27/8/28
f 27/8/28 28/7/27 30/5/29 29/6/30
f 29/6/30 30/5/29 32/3/31 31/4/32
f 31/4/32 32/3/31 34/2/33 33/1/34
f 33/1/34 34/2/33 36/14/35 35/15/36
f 35/15/36 36/14/35 38/16/37 37/17/38
f 37/17/38 38/16/37 40/22/39 39/19/40
f 39/19/40 40/22/39 42/23/41 41/21/42
f 41/21/42 42/20/41 44/18/43 43/19/44
f 43/19/44 44/18/43 46/16/45 45/17/46
f 45/17/46 46/16/45 48/14/47 47/15/48
f 47/15/48 48/14/47 50/2/49 49/1/50
f 49/1/50 50/2/49 52/3/51 51/4/52
f 51/4/52 52/3/51 54/5/53 53/6/54
f 53/6/54 54/5/53 56/7/55 55/13/56
f 55/13/56 56/7/55 58/12/57 57/11/58
f 57/21/58 58/23/57 60/22/59 59/19/60
f 59/19/60 60/22/59 62/16/61 61/17/62
f 4/24/3 2/25/2 64/26/63 62/27/61 60/28/59 58/29/57 56/30/55 54/31/53 52/32/51 50/33/49 48/34/47 46/35/45 44/36/43 42/37/41 40/38/39 38/39/37 36/40/35 34/41/33 32/42/31 30/43/29 28/44/27 26/45/25 24/46/23 22/47/21 20/48/19 18/49/17 16/50/15 14/51/13 12/52/11 10/53/9 8/54/7 6/55/5
f 61/17/62 62/16/61 64/14/63 63/15/64
f 63/15/64 64/14/63 2/2/2 1/1/1
f 1/25/1 3/24/4 5/56/6 7/57/8 9/53/10 11/58/12 13/51/14 15/50/16 17/49/18 19/48/20 21/47/22 23/59/24 25/45/26 27/60/28 29/61/30 31/42/32 33/41/34 35/40/36 37/62/38 39/63/40 41/64/42 43/65/44 45/66/46 47/67/48 49/33/50 51/68/52 53/69/54 55/70/56 57/71/58 59/72/60 61/73/62 63/26/64
